# xmcd
#
# Track frame offsets:
#	150
#	29666
#	59662
#	85154
#	137306
#	157751
#	160457
#	238656
#	312722
#
# Disc length: 4398 seconds
#
# Revision: 0
# Processed by: cddbd v1.5.1PL2 Copyright (c) Steve Scherf et al.
# Submitted via: audiograbber 1.83.01
#
DISCID=75112c09
DTITLE=The Allman Brthers Band - Live
DYEAR=1975
DGENRE=Rock
TTITLE0=Melissa
TTITLE1=Old days
TTITLE2=Goin´down the road, feelin´bad
TTITLE3=Whipping Post
TTITLE4=Dickey Betts: Long time gone
TTITLE5=Franklins tower - Blue Sky
TTITLE6=Dreams
TTITLE7=Blue Sky
TTITLE8=Cowboy: Please be with me
EXTD=
EXTT0=
EXTT1=
EXTT2=
EXTT3=
EXTT4=
EXTT5=
EXTT6=
EXTT7=
EXTT8=
PLAYORDER=
